<svg width="100.81685035619529" height="758.5539170265198" viewBox="0 0 100.81685035619529 758.5539170265198"  xmlns="http://www.w3.org/2000/svg"><path d="M 34.41798040596611 606.9091143569493 A 23.736639901696066 23.736639901696066 179.99999999999997 0 1 25.805810626233722 588.6148945771222" stroke="#404040" stroke-width="0.8642554" fill="none" /><path d="M 25.805810626233722 588.6148945771222 A 23.736639901696066 23.736639901696066 129.5817273425105 0 1 34.41798040596611 570.320674797295" stroke="#404040" stroke-width="0.8642554" fill="none" /><path d="M 64.66692064989346 570.320674797295 A 23.736639901696066 23.736639901696066 50.41827265748949 0 1 73.27909042962585 588.6148945771222" stroke="#404040" stroke-width="0.8642554" fill="none" /><path d="M 73.27909042962585 588.6148945771222 A 23.736639901696062 23.736639901696062 309.58172734251053 0 1 64.66692064989346 606.9091143569493" stroke="#404040" stroke-width="0.8642554" fill="none" /><g><circle cx="25.805810626233722" cy="588.6148945771222" r="6.049788048785471" stroke="#9e3332" stroke-width="0.8642554" fill="#e34948"/><text x="22.805810575647715" y="591.6148950033734" style="fill:#ffffff;font-family:Arial;font-size:10;">A</text></g><g><circle cx="73.27909042962585" cy="588.6148945771222" r="6.049788048785466" stroke="#7d3982" stroke-width="0.8642554" fill="#b352ba"/><text x="70.27909037903984" y="591.6148950033734" style="fill:#ffffff;font-family:Arial;font-size:10;">C</text></g><path d="M 34.417980405966105 422.53299531982145 A 28.428490872218227 28.428490872218227 122.14190763534202 0 1 34.417980405966105 374.39031168869747" stroke="#404040" stroke-width="0.8642554" fill="none" /><path d="M 64.66692064989346 374.39031168869747 A 28.428490872218227 28.428490872218227 57.858092364657935 0 1 71.76854386473606 380.73653380775613" stroke="#404040" stroke-width="0.8642554" fill="none" /><path d="M 71.76854386473606 380.73653380775613 A 28.42849087221824 28.42849087221824 38.57206157643868 0 1 76.37557730084113 389.07216997955675" stroke="#404040" stroke-width="0.8642554" fill="none" /><path d="M 76.37557730084113 389.07216997955675 A 28.42849087221824 28.42849087221824 19.286030788219332 0 1 77.970941400148 398.46165350425946" stroke="#404040" stroke-width="0.8642554" fill="none" /><path d="M 77.970941400148 398.46165350425946 A 28.428490872218227 28.428490872218227 340.7139692117807 0 1 76.37557730084109 407.85113702896217" stroke="#404040" stroke-width="0.8642554" fill="none" /><path d="M 76.37557730084109 407.85113702896217 A 28.428490872218198 28.428490872218198 321.4279384235615 0 1 71.76854386473612 416.1867732007628" stroke="#404040" stroke-width="0.8642554" fill="none" /><path d="M 71.76854386473612 416.1867732007628 A 28.428490872218255 28.428490872218255 302.1419076353421 0 1 64.66692064989346 422.53299531982145" stroke="#404040" stroke-width="0.8642554" fill="none" /><g><circle cx="71.76854386473606" cy="380.73653380775613" r="6.049788048785473" stroke="#7d3982" stroke-width="0.8642554" fill="#b352ba"/><text x="68.76854381415005" y="383.73653423400725" style="fill:#ffffff;font-family:Arial;font-size:10;">C</text></g><g><circle cx="76.37557730084113" cy="389.07216997955675" r="6.049788048785473" stroke="#7d3982" stroke-width="0.8642554" fill="#b352ba"/><text x="73.37557725025512" y="392.0721704058079" style="fill:#ffffff;font-family:Arial;font-size:10;">C</text></g><g><circle cx="77.970941400148" cy="398.46165350425946" r="6.049788048785466" stroke="#11694d" stroke-width="0.8642554" fill="#19966e"/><text x="74.47094134956201" y="401.4616539305106" style="fill:#ffffff;font-family:Arial;font-size:10;">U</text></g><g><circle cx="76.37557730084109" cy="407.85113702896217" r="6.049788048785473" stroke="#11694d" stroke-width="0.8642554" fill="#19966e"/><text x="72.87557725025508" y="410.85113745521335" style="fill:#ffffff;font-family:Arial;font-size:10;">U</text></g><g><text x="88.06373" y="415.3159" style="fill:#404040;font-family:Arial;font-size:8;">6</text></g><g><text x="93.06373" y="415.3159" style="fill:#404040;font-family:Arial;font-size:8;">0</text></g><g><circle cx="84.6852505448916" cy="410.9461469851685" r="2.016596016261815"  stroke-width="0.0" fill="#404040"/></g><g><circle cx="71.76854386473613" cy="416.1867732007628" r="6.049788048785466" stroke="#7d3982" stroke-width="0.8642554" fill="#b352ba"/><text x="68.76854381415012" y="419.18677362701396" style="fill:#ffffff;font-family:Arial;font-size:10;">C</text></g><path d="M 34.41798040596609 111.65665928429985 A 27.216419673500205 27.216419673500205 203.7424425721158 0 1 24.62950357654101 99.9876349387963" stroke="#404040" stroke-width="0.8642554" fill="none" /><path d="M 24.62950357654101 99.9876349387963 A 27.216419673500184 27.216419673500184 171.24460183722536 0 1 22.64317906627204 84.88680970452344" stroke="#404040" stroke-width="0.8642554" fill="none" /><path d="M 22.64317906627204 84.88680970452344 A 27.21641967350017 27.21641967350017 171.24460183722547 0 1 29.081077255457068 71.08340886553333" stroke="#404040" stroke-width="0.8642554" fill="none" /><path d="M 29.081077255457068 71.08340886553333 A 27.21641967350018 27.21641967350018 138.74676110233526 0 1 41.926999001327005 62.90033472954201" stroke="#404040" stroke-width="0.8642554" fill="none" /><path d="M 41.926999001327005 62.90033472954201 A 27.216419673500205 27.216419673500205 106.24892036744508 0 1 57.15790205453255 62.90033472954201" stroke="#404040" stroke-width="0.8642554" fill="none" /><path d="M 57.15790205453255 62.90033472954201 A 27.216419673500205 27.216419673500205 73.75107963255486 0 1 70.0038238004025 71.08340886553333" stroke="#404040" stroke-width="0.8642554" fill="none" /><path d="M 70.0038238004025 71.08340886553333 A 27.21641967350022 27.21641967350022 41.253238897664744 0 1 76.44172198958748 84.88680970452367" stroke="#404040" stroke-width="0.8642554" fill="none" /><path d="M 76.44172198958748 84.88680970452367 A 27.21641967350014 27.21641967350014 8.755398162774263 0 1 74.45539747931852 99.9876349387963" stroke="#404040" stroke-width="0.8642554" fill="none" /><path d="M 74.45539747931852 99.9876349387963 A 27.216419673500184 27.216419673500184 303.75971669299395 0 1 64.66692064989344 111.65665928429985" stroke="#404040" stroke-width="0.8642554" fill="none" /><g><circle cx="24.62950357654101" cy="99.98763493879636" r="6.049788048785469" stroke="#11694d" stroke-width="0.8642554" fill="#19966e"/><text x="21.129503525955002" y="102.98763536504748" style="fill:#ffffff;font-family:Arial;font-size:10;">U</text></g><g><circle cx="22.64317906627204" cy="84.88680970452344" r="6.049788048785471" stroke="#7d3982" stroke-width="0.8642554" fill="#b352ba"/><text x="19.64317901568603" y="87.88681013077462" style="fill:#ffffff;font-family:Arial;font-size:10;">C</text></g><g><circle cx="29.081077255457068" cy="71.08340886553333" r="6.049788048785471" stroke="#3d2f83" stroke-width="0.8642554" fill="#5844bc"/><text x="26.08107720487106" y="74.0834092917845" style="fill:#ffffff;font-family:Arial;font-size:10;">A</text></g><g><circle cx="41.926999001327005" cy="62.90033472954201" r="6.049788048785473" stroke="#3d2f83" stroke-width="0.8642554" fill="#5844bc"/><text x="38.926998950740995" y="65.90033515579319" style="fill:#ffffff;font-family:Arial;font-size:10;">A</text></g><g><text x="35.220963" y="50.96907" style="fill:#404040;font-family:Arial;font-size:8;">5</text></g><g><text x="30.220964" y="50.96907" style="fill:#404040;font-family:Arial;font-size:8;">3</text></g><g><circle cx="39.83710771512065" cy="55.02938006513307" r="2.0165960162618255"  stroke-width="0.0" fill="#404040"/></g><g><circle cx="57.15790205453254" cy="62.90033472954201" r="6.049788048785469" stroke="#11694d" stroke-width="0.8642554" fill="#19966e"/><text x="53.65790200394654" y="65.90033515579319" style="fill:#ffffff;font-family:Arial;font-size:10;">U</text></g><g><circle cx="70.0038238004025" cy="71.08340886553333" r="6.049788048785469" stroke="#11694d" stroke-width="0.8642554" fill="#19966e"/><text x="66.50382374981649" y="74.0834092917845" style="fill:#ffffff;font-family:Arial;font-size:10;">U</text></g><g><circle cx="76.44172198958748" cy="84.88680970452361" r="6.049788048785466" stroke="#106ba5" stroke-width="0.8642554" fill="#1899ec"/><text x="72.94172193900148" y="87.88681013077473" style="fill:#ffffff;font-family:Arial;font-size:10;">G</text></g><g><circle cx="74.45539747931852" cy="99.98763493879636" r="6.049788048785473" stroke="#7d3982" stroke-width="0.8642554" fill="#b352ba"/><text x="71.45539742873251" y="102.98763536504748" style="fill:#ffffff;font-family:Arial;font-size:10;">C</text></g><line x1="34.41798040596611" y1="633.7010328587136" x2="34.41798040596611" y2="629.3797556810097" stroke="#404040" stroke-width="0.8642554"/><line x1="34.41798040596611" y1="617.2801795834387" x2="34.41798040596611" y2="612.9589024057348" stroke="#404040" stroke-width="0.8642554"/><line x1="64.66692064989346" y1="612.9589024057348" x2="64.66692064989346" y2="617.2801795834387" stroke="#404040" stroke-width="0.8642554"/><line x1="64.66692064989346" y1="629.3797556810097" x2="64.66692064989346" y2="633.7010328587136" stroke="#404040" stroke-width="0.8642554"/><line x1="43.06053476137393" y1="639.750820907499" x2="45.22117335022588" y2="639.750820907499" stroke="#404040" stroke-width="0.8642554"/><circle cx="49.54245052792979" cy="639.750820907499" r="4.321277177703905" stroke="#404040" stroke-width="0.8642554" fill="#404040"/><line x1="53.86372770563369" y1="639.750820907499" x2="56.024366294485645" y2="639.750820907499" stroke="#404040" stroke-width="0.8642554"/><g><circle cx="34.41798040596611" cy="639.750820907499" r="6.049788048785468" stroke="#106ba5" stroke-width="0.8642554" fill="#1899ec"/><text x="30.917980355380106" y="642.7508213337502" style="fill:#ffffff;font-family:Arial;font-size:10;">G</text></g><g><text x="16.886276" y="642.2508" style="fill:#404040;font-family:Arial;font-size:8;">1</text></g><g><circle cx="25.919468623148425" cy="639.750820907499" r="2.0165960162618237"  stroke-width="0.0" fill="#404040"/></g><g><circle cx="64.66692064989346" cy="639.750820907499" r="6.049788048785466" stroke="#11694d" stroke-width="0.8642554" fill="#19966e"/><text x="61.16692059930746" y="642.7508213337502" style="fill:#ffffff;font-family:Arial;font-size:10;">U</text></g><g><text x="77.19862" y="642.2508" style="fill:#404040;font-family:Arial;font-size:8;">7</text></g><g><text x="82.19862" y="642.2508" style="fill:#404040;font-family:Arial;font-size:8;">5</text></g><g><circle cx="73.16543243271116" cy="639.750820907499" r="2.016596016261822"  stroke-width="0.0" fill="#404040"/></g><line x1="43.06053476137393" y1="623.3299676322242" x2="45.22117335022588" y2="623.3299676322242" stroke="#404040" stroke-width="0.8642554"/><circle cx="49.54245052792979" cy="623.3299676322242" r="4.321277177703905" stroke="#404040" stroke-width="0.8642554" fill="#404040"/><line x1="53.86372770563369" y1="623.3299676322242" x2="56.024366294485645" y2="623.3299676322242" stroke="#404040" stroke-width="0.8642554"/><g><circle cx="34.41798040596611" cy="623.3299676322242" r="6.049788048785468" stroke="#7d3982" stroke-width="0.8642554" fill="#b352ba"/><text x="31.417980355380106" y="626.3299680584753" style="fill:#ffffff;font-family:Arial;font-size:10;">C</text></g><g><circle cx="64.66692064989346" cy="623.3299676322242" r="6.049788048785466" stroke="#106ba5" stroke-width="0.8642554" fill="#1899ec"/><text x="61.16692059930746" y="626.3299680584753" style="fill:#ffffff;font-family:Arial;font-size:10;">G</text></g><line x1="43.06053476137393" y1="606.9091143569493" x2="45.22117335022588" y2="606.9091143569493" stroke="#404040" stroke-width="0.8642554"/><circle cx="49.54245052792979" cy="606.9091143569493" r="4.321277177703905" stroke="#404040" stroke-width="0.8642554" fill="#404040"/><line x1="53.86372770563369" y1="606.9091143569493" x2="56.024366294485645" y2="606.9091143569493" stroke="#404040" stroke-width="0.8642554"/><g><circle cx="34.41798040596611" cy="606.9091143569493" r="6.049788048785468" stroke="#3d2f83" stroke-width="0.8642554" fill="#5844bc"/><text x="31.417980355380106" y="609.9091147832005" style="fill:#ffffff;font-family:Arial;font-size:10;">A</text></g><g><circle cx="64.66692064989346" cy="606.9091143569493" r="6.049788048785466" stroke="#11694d" stroke-width="0.8642554" fill="#19966e"/><text x="61.16692059930746" y="609.9091147832005" style="fill:#ffffff;font-family:Arial;font-size:10;">U</text></g><line x1="34.41798040596611" y1="564.2708867485096" x2="34.41798040596611" y2="559.9496095708057" stroke="#404040" stroke-width="0.8642554"/><line x1="34.417980405966105" y1="547.8500334732348" x2="34.41798040596611" y2="543.5287562955309" stroke="#404040" stroke-width="0.8642554"/><line x1="34.417980405966105" y1="531.4291801979599" x2="34.417980405966105" y2="527.107903020256" stroke="#404040" stroke-width="0.8642554"/><line x1="34.417980405966105" y1="515.0083269226851" x2="34.417980405966105" y2="510.68704974498115" stroke="#404040" stroke-width="0.8642554"/><line x1="34.417980405966105" y1="498.5874736474102" x2="34.417980405966105" y2="494.2661964697063" stroke="#404040" stroke-width="0.8642554"/><line x1="34.417980405966105" y1="482.1666203721354" x2="34.417980405966105" y2="477.8453431944315" stroke="#404040" stroke-width="0.8642554"/><line x1="34.417980405966105" y1="465.7457670968605" x2="34.417980405966105" y2="461.4244899191566" stroke="#404040" stroke-width="0.8642554"/><line x1="34.417980405966105" y1="449.3249138215857" x2="34.417980405966105" y2="445.0036366438818" stroke="#404040" stroke-width="0.8642554"/><line x1="34.417980405966105" y1="432.9040605463108" x2="34.417980405966105" y2="428.5827833686069" stroke="#404040" stroke-width="0.8642554"/><line x1="64.66692064989346" y1="428.5827833686069" x2="64.66692064989346" y2="432.9040605463108" stroke="#404040" stroke-width="0.8642554"/><line x1="64.66692064989346" y1="445.0036366438818" x2="64.66692064989346" y2="449.3249138215857" stroke="#404040" stroke-width="0.8642554"/><line x1="64.66692064989346" y1="461.4244899191566" x2="64.66692064989346" y2="465.7457670968605" stroke="#404040" stroke-width="0.8642554"/><line x1="64.66692064989346" y1="477.8453431944315" x2="64.66692064989346" y2="482.1666203721354" stroke="#404040" stroke-width="0.8642554"/><line x1="64.66692064989346" y1="494.2661964697063" x2="64.66692064989346" y2="498.5874736474102" stroke="#404040" stroke-width="0.8642554"/><line x1="64.66692064989346" y1="510.68704974498115" x2="64.66692064989346" y2="515.0083269226851" stroke="#404040" stroke-width="0.8642554"/><line x1="64.66692064989346" y1="527.107903020256" x2="64.66692064989346" y2="531.4291801979599" stroke="#404040" stroke-width="0.8642554"/><line x1="64.66692064989346" y1="543.5287562955309" x2="64.66692064989346" y2="547.8500334732348" stroke="#404040" stroke-width="0.8642554"/><line x1="64.66692064989346" y1="559.9496095708057" x2="64.66692064989346" y2="564.2708867485096" stroke="#404040" stroke-width="0.8642554"/><line x1="43.06053476137393" y1="570.320674797295" x2="45.22117335022588" y2="570.320674797295" stroke="#404040" stroke-width="0.8642554"/><circle cx="49.54245052792979" cy="570.3206766597004" r="4.321277177703905" stroke="#404040" stroke-width="0.8642554" fill="#404040"/><line x1="53.86372770563369" y1="570.320674797295" x2="56.024366294485645" y2="570.320674797295" stroke="#404040" stroke-width="0.8642554"/><g><circle cx="34.41798040596611" cy="570.320674797295" r="6.049788048785468" stroke="#11694d" stroke-width="0.8642554" fill="#19966e"/><text x="30.917980355380106" y="573.3206752235462" style="fill:#ffffff;font-family:Arial;font-size:10;">U</text></g><g><text x="16.886276" y="572.8207" style="fill:#404040;font-family:Arial;font-size:8;">5</text></g><g><circle cx="25.919468623148425" cy="570.320674797295" r="2.0165960162618237"  stroke-width="0.0" fill="#404040"/></g><g><circle cx="64.66692064989346" cy="570.320674797295" r="6.049788048785466" stroke="#3d2f83" stroke-width="0.8642554" fill="#5844bc"/><text x="61.66692059930746" y="573.3206752235462" style="fill:#ffffff;font-family:Arial;font-size:10;">A</text></g><line x1="43.06053476137393" y1="553.8998215220203" x2="45.22117335022588" y2="553.8998215220203" stroke="#404040" stroke-width="0.8642554"/><circle cx="49.54245052792979" cy="553.8998233844255" r="4.321277177703905" stroke="#404040" stroke-width="0.8642554" fill="#404040"/><line x1="53.86372770563369" y1="553.8998215220203" x2="56.024366294485645" y2="553.8998215220203" stroke="#404040" stroke-width="0.8642554"/><g><circle cx="34.41798040596611" cy="553.8998215220203" r="6.049788048785468" stroke="#9e3332" stroke-width="0.8642554" fill="#e34948"/><text x="31.417980355380106" y="556.8998219482714" style="fill:#ffffff;font-family:Arial;font-size:10;">A</text></g><g><circle cx="64.66692064989346" cy="553.8998215220203" r="6.049788048785466" stroke="#11694d" stroke-width="0.8642554" fill="#19966e"/><text x="61.16692059930746" y="556.8998219482714" style="fill:#ffffff;font-family:Arial;font-size:10;">U</text></g><g><text x="77.19862" y="556.39984" style="fill:#404040;font-family:Arial;font-size:8;">7</text></g><g><text x="82.19862" y="556.39984" style="fill:#404040;font-family:Arial;font-size:8;">0</text></g><g><circle cx="73.16543243271116" cy="553.8998215220203" r="2.016596016261822"  stroke-width="0.0" fill="#404040"/></g><line x1="43.06053476137392" y1="537.4789682467454" x2="45.221173350225875" y2="537.4789682467454" stroke="#404040" stroke-width="0.8642554"/><circle cx="49.54245052792979" cy="537.4789701091507" r="4.321277177703905" stroke="#404040" stroke-width="0.8642554" fill="#404040"/><line x1="53.86372770563369" y1="537.4789682467454" x2="56.024366294485645" y2="537.4789682467454" stroke="#404040" stroke-width="0.8642554"/><g><circle cx="34.417980405966105" cy="537.4789682467454" r="6.049788048785469" stroke="#7d3982" stroke-width="0.8642554" fill="#b352ba"/><text x="31.417980355380102" y="540.4789686729965" style="fill:#ffffff;font-family:Arial;font-size:10;">C</text></g><g><circle cx="64.66692064989346" cy="537.4789682467454" r="6.049788048785469" stroke="#106ba5" stroke-width="0.8642554" fill="#1899ec"/><text x="61.16692059930745" y="540.4789686729965" style="fill:#ffffff;font-family:Arial;font-size:10;">G</text></g><line x1="43.06053476137392" y1="521.0581149714706" x2="45.221173350225875" y2="521.0581149714706" stroke="#404040" stroke-width="0.8642554"/><circle cx="49.54245052792979" cy="521.0581102401302" r="4.321277177703905" stroke="#404040" stroke-width="0.8642554" fill="#404040"/><line x1="53.86372770563369" y1="521.0581149714706" x2="56.024366294485645" y2="521.0581149714706" stroke="#404040" stroke-width="0.8642554"/><g><circle cx="34.417980405966105" cy="521.0581149714706" r="6.049788048785469" stroke="#106ba5" stroke-width="0.8642554" fill="#1899ec"/><text x="30.917980355380102" y="524.0581153977217" style="fill:#ffffff;font-family:Arial;font-size:10;">G</text></g><g><circle cx="64.66692064989346" cy="521.0581149714706" r="6.049788048785469" stroke="#11694d" stroke-width="0.8642554" fill="#19966e"/><text x="61.16692059930745" y="524.0581153977217" style="fill:#ffffff;font-family:Arial;font-size:10;">U</text></g><line x1="43.06053476137392" y1="504.63726169619565" x2="45.221173350225875" y2="504.63726169619565" stroke="#404040" stroke-width="0.8642554"/><circle cx="49.54245052792979" cy="504.6372569648553" r="4.321277177703905" stroke="#404040" stroke-width="0.8642554" fill="#404040"/><line x1="53.86372770563369" y1="504.63726169619565" x2="56.024366294485645" y2="504.63726169619565" stroke="#404040" stroke-width="0.8642554"/><g><circle cx="34.417980405966105" cy="504.63726169619565" r="6.049788048785469" stroke="#11694d" stroke-width="0.8642554" fill="#19966e"/><text x="30.917980355380102" y="507.6372621224468" style="fill:#ffffff;font-family:Arial;font-size:10;">U</text></g><g><circle cx="64.66692064989346" cy="504.63726169619565" r="6.049788048785469" stroke="#3d2f83" stroke-width="0.8642554" fill="#5844bc"/><text x="61.66692059930745" y="507.6372621224468" style="fill:#ffffff;font-family:Arial;font-size:10;">A</text></g><line x1="43.06053476137392" y1="488.21640842092086" x2="45.221173350225875" y2="488.21640842092086" stroke="#404040" stroke-width="0.8642554"/><circle cx="49.54245052792979" cy="488.2164036895805" r="4.321277177703905" stroke="#404040" stroke-width="0.8642554" fill="#404040"/><line x1="53.863727705633686" y1="488.21640842092086" x2="56.024366294485645" y2="488.21640842092086" stroke="#404040" stroke-width="0.8642554"/><g><circle cx="34.417980405966105" cy="488.21640842092086" r="6.049788048785471" stroke="#3d2f83" stroke-width="0.8642554" fill="#5844bc"/><text x="31.4179803553801" y="491.21640884717203" style="fill:#ffffff;font-family:Arial;font-size:10;">A</text></g><g><text x="16.886276" y="490.7164" style="fill:#404040;font-family:Arial;font-size:8;">0</text></g><g><text x="11.886276" y="490.7164" style="fill:#404040;font-family:Arial;font-size:8;">1</text></g><g><circle cx="25.91946862314842" cy="488.21640842092086" r="2.0165960162618237"  stroke-width="0.0" fill="#404040"/></g><g><circle cx="64.66692064989346" cy="488.21640842092086" r="6.049788048785473" stroke="#11694d" stroke-width="0.8642554" fill="#19966e"/><text x="61.166920599307446" y="491.21640884717203" style="fill:#ffffff;font-family:Arial;font-size:10;">U</text></g><line x1="43.06053476137392" y1="471.795555145646" x2="45.221173350225875" y2="471.795555145646" stroke="#404040" stroke-width="0.8642554"/><circle cx="49.54245052792979" cy="471.79555041430564" r="4.321277177703905" stroke="#404040" stroke-width="0.8642554" fill="#404040"/><line x1="53.863727705633686" y1="471.795555145646" x2="56.024366294485645" y2="471.795555145646" stroke="#404040" stroke-width="0.8642554"/><g><circle cx="34.417980405966105" cy="471.795555145646" r="6.049788048785471" stroke="#3d2f83" stroke-width="0.8642554" fill="#5844bc"/><text x="31.4179803553801" y="474.7955555718971" style="fill:#ffffff;font-family:Arial;font-size:10;">A</text></g><g><circle cx="64.66692064989346" cy="471.795555145646" r="6.049788048785473" stroke="#11694d" stroke-width="0.8642554" fill="#19966e"/><text x="61.166920599307446" y="474.7955555718971" style="fill:#ffffff;font-family:Arial;font-size:10;">U</text></g><g><text x="77.19862" y="474.29556" style="fill:#404040;font-family:Arial;font-size:8;">6</text></g><g><text x="82.19862" y="474.29556" style="fill:#404040;font-family:Arial;font-size:8;">5</text></g><g><circle cx="73.16543243271114" cy="471.79555514564595" r="2.016596016261829"  stroke-width="0.0" fill="#404040"/></g><line x1="43.06053476137392" y1="455.37470187037115" x2="45.221173350225875" y2="455.37470187037115" stroke="#404040" stroke-width="0.8642554"/><circle cx="49.54245052792979" cy="455.3746971390308" r="4.321277177703905" stroke="#404040" stroke-width="0.8642554" fill="#404040"/><line x1="53.863727705633686" y1="455.37470187037115" x2="56.024366294485645" y2="455.37470187037115" stroke="#404040" stroke-width="0.8642554"/><g><circle cx="34.417980405966105" cy="455.37470187037115" r="6.049788048785471" stroke="#11694d" stroke-width="0.8642554" fill="#19966e"/><text x="30.9179803553801" y="458.37470229662233" style="fill:#ffffff;font-family:Arial;font-size:10;">U</text></g><g><circle cx="64.66692064989346" cy="455.37470187037115" r="6.049788048785473" stroke="#3d2f83" stroke-width="0.8642554" fill="#5844bc"/><text x="61.666920599307446" y="458.37470229662233" style="fill:#ffffff;font-family:Arial;font-size:10;">A</text></g><line x1="43.060534761373916" y1="438.9538485950963" x2="45.22117335022587" y2="438.9538485950963" stroke="#404040" stroke-width="0.8642554"/><circle cx="49.54245052792979" cy="438.95384386375594" r="4.321277177703905" stroke="#404040" stroke-width="0.8642554" fill="#404040"/><line x1="53.863727705633686" y1="438.9538485950963" x2="56.02436629448564" y2="438.9538485950963" stroke="#404040" stroke-width="0.8642554"/><g><circle cx="34.417980405966105" cy="438.9538485950963" r="6.049788048785469" stroke="#7d3982" stroke-width="0.8642554" fill="#b352ba"/><text x="31.417980355380095" y="441.9538490213474" style="fill:#ffffff;font-family:Arial;font-size:10;">C</text></g><g><circle cx="64.66692064989346" cy="438.9538485950963" r="6.049788048785473" stroke="#106ba5" stroke-width="0.8642554" fill="#1899ec"/><text x="61.166920599307446" y="441.9538490213474" style="fill:#ffffff;font-family:Arial;font-size:10;">G</text></g><line x1="43.060534761373916" y1="422.53299531982145" x2="45.22117335022587" y2="422.53299531982145" stroke="#404040" stroke-width="0.8642554"/><circle cx="49.54245052792979" cy="422.5329971822268" r="4.321277177703905" stroke="#404040" stroke-width="0.8642554" fill="#404040"/><line x1="53.863727705633686" y1="422.53299531982145" x2="56.02436629448564" y2="422.53299531982145" stroke="#404040" stroke-width="0.8642554"/><g><circle cx="34.417980405966105" cy="422.53299531982145" r="6.049788048785469" stroke="#7d3982" stroke-width="0.8642554" fill="#b352ba"/><text x="31.417980355380095" y="425.53299574607263" style="fill:#ffffff;font-family:Arial;font-size:10;">C</text></g><g><circle cx="64.66692064989346" cy="422.53299531982145" r="6.049788048785473" stroke="#106ba5" stroke-width="0.8642554" fill="#1899ec"/><text x="61.166920599307446" y="425.53299574607263" style="fill:#ffffff;font-family:Arial;font-size:10;">G</text></g><line x1="34.417980405966105" y1="368.340523639912" x2="34.417980405966105" y2="364.0192464622081" stroke="#404040" stroke-width="0.8642554"/><line x1="34.4179804059661" y1="351.91967036463717" x2="34.417980405966105" y2="347.59839318693327" stroke="#404040" stroke-width="0.8642554"/><line x1="34.4179804059661" y1="335.4988170893623" x2="34.4179804059661" y2="331.1775399116584" stroke="#404040" stroke-width="0.8642554"/><line x1="34.4179804059661" y1="319.07796381408747" x2="34.4179804059661" y2="314.75668663638356" stroke="#404040" stroke-width="0.8642554"/><line x1="34.4179804059661" y1="302.6571105388126" x2="34.4179804059661" y2="298.3358333611087" stroke="#404040" stroke-width="0.8642554"/><line x1="34.4179804059661" y1="286.23625726353777" x2="34.4179804059661" y2="281.91498008583386" stroke="#404040" stroke-width="0.8642554"/><line x1="34.4179804059661" y1="269.8154039882629" x2="34.4179804059661" y2="265.494126810559" stroke="#404040" stroke-width="0.8642554"/><line x1="34.41798040596609" y1="253.39455071298806" x2="34.4179804059661" y2="249.07327353528416" stroke="#404040" stroke-width="0.8642554"/><line x1="34.41798040596609" y1="236.9736974377132" x2="34.41798040596609" y2="232.6524202600093" stroke="#404040" stroke-width="0.8642554"/><line x1="34.41798040596609" y1="220.55284416243836" x2="34.41798040596609" y2="216.23156698473446" stroke="#404040" stroke-width="0.8642554"/><line x1="34.41798040596609" y1="204.1319908871635" x2="34.41798040596609" y2="199.81071370945955" stroke="#404040" stroke-width="0.8642554"/><line x1="34.41798040596609" y1="187.71113761188866" x2="34.41798040596609" y2="183.38986043418475" stroke="#404040" stroke-width="0.8642554"/><line x1="34.41798040596609" y1="171.2902843366138" x2="34.41798040596609" y2="166.9690071589099" stroke="#404040" stroke-width="0.8642554"/><line x1="34.41798040596609" y1="154.86943106133896" x2="34.41798040596609" y2="150.54815388363505" stroke="#404040" stroke-width="0.8642554"/><line x1="34.41798040596609" y1="138.4485777860641" x2="34.41798040596609" y2="134.1273006083602" stroke="#404040" stroke-width="0.8642554"/><line x1="34.41798040596609" y1="122.0277245107892" x2="34.41798040596609" y2="117.7064473330853" stroke="#404040" stroke-width="0.8642554"/><line x1="64.66692064989344" y1="117.7064473330853" x2="64.66692064989344" y2="122.0277245107892" stroke="#404040" stroke-width="0.8642554"/><line x1="64.66692064989344" y1="134.1273006083602" x2="64.66692064989344" y2="138.4485777860641" stroke="#404040" stroke-width="0.8642554"/><line x1="64.66692064989344" y1="150.54815388363505" x2="64.66692064989344" y2="154.86943106133896" stroke="#404040" stroke-width="0.8642554"/><line x1="64.66692064989344" y1="166.9690071589099" x2="64.66692064989344" y2="171.2902843366138" stroke="#404040" stroke-width="0.8642554"/><line x1="64.66692064989344" y1="183.38986043418475" x2="64.66692064989344" y2="187.71113761188866" stroke="#404040" stroke-width="0.8642554"/><line x1="64.66692064989344" y1="199.81071370945955" x2="64.66692064989344" y2="204.1319908871635" stroke="#404040" stroke-width="0.8642554"/><line x1="64.66692064989344" y1="216.23156698473446" x2="64.66692064989344" y2="220.55284416243836" stroke="#404040" stroke-width="0.8642554"/><line x1="64.66692064989344" y1="232.6524202600093" x2="64.66692064989344" y2="236.9736974377132" stroke="#404040" stroke-width="0.8642554"/><line x1="64.66692064989344" y1="249.07327353528416" x2="64.66692064989344" y2="253.39455071298806" stroke="#404040" stroke-width="0.8642554"/><line x1="64.66692064989344" y1="265.494126810559" x2="64.66692064989344" y2="269.8154039882629" stroke="#404040" stroke-width="0.8642554"/><line x1="64.66692064989344" y1="281.91498008583386" x2="64.66692064989344" y2="286.23625726353777" stroke="#404040" stroke-width="0.8642554"/><line x1="64.66692064989346" y1="298.3358333611087" x2="64.66692064989344" y2="302.6571105388126" stroke="#404040" stroke-width="0.8642554"/><line x1="64.66692064989346" y1="314.75668663638356" x2="64.66692064989346" y2="319.07796381408747" stroke="#404040" stroke-width="0.8642554"/><line x1="64.66692064989346" y1="331.1775399116584" x2="64.66692064989346" y2="335.4988170893623" stroke="#404040" stroke-width="0.8642554"/><line x1="64.66692064989346" y1="347.59839318693327" x2="64.66692064989346" y2="351.91967036463717" stroke="#404040" stroke-width="0.8642554"/><line x1="64.66692064989346" y1="364.0192464622081" x2="64.66692064989346" y2="368.340523639912" stroke="#404040" stroke-width="0.8642554"/><line x1="43.060534761373916" y1="374.39031168869747" x2="45.22117335022587" y2="374.39031168869747" stroke="#404040" stroke-width="0.8642554"/><circle cx="49.54245052792979" cy="374.39029934375225" r="4.321277177703905" stroke="#404040" stroke-width="0.8642554" fill="#404040"/><line x1="53.863727705633686" y1="374.39031168869747" x2="56.02436629448564" y2="374.39031168869747" stroke="#404040" stroke-width="0.8642554"/><g><circle cx="34.417980405966105" cy="374.39031168869747" r="6.049788048785469" stroke="#11694d" stroke-width="0.8642554" fill="#19966e"/><text x="30.917980355380095" y="377.39031211494864" style="fill:#ffffff;font-family:Arial;font-size:10;">U</text></g><g><text x="16.886276" y="376.89032" style="fill:#404040;font-family:Arial;font-size:8;">5</text></g><g><text x="11.886276" y="376.89032" style="fill:#404040;font-family:Arial;font-size:8;">1</text></g><g><circle cx="25.91946862314842" cy="374.39031168869747" r="2.0165960162618237"  stroke-width="0.0" fill="#404040"/></g><g><circle cx="64.66692064989346" cy="374.39031168869747" r="6.049788048785473" stroke="#3d2f83" stroke-width="0.8642554" fill="#5844bc"/><text x="61.666920599307446" y="377.39031211494864" style="fill:#ffffff;font-family:Arial;font-size:10;">A</text></g><line x1="43.060534761373916" y1="357.9694584134226" x2="45.22117335022587" y2="357.9694584134226" stroke="#404040" stroke-width="0.8642554"/><circle cx="49.54245052792979" cy="357.9694460684774" r="4.321277177703905" stroke="#404040" stroke-width="0.8642554" fill="#404040"/><line x1="53.863727705633686" y1="357.9694584134226" x2="56.02436629448564" y2="357.9694584134226" stroke="#404040" stroke-width="0.8642554"/><g><circle cx="34.417980405966105" cy="357.9694584134227" r="6.049788048785469" stroke="#9e3332" stroke-width="0.8642554" fill="#e34948"/><text x="31.417980355380095" y="360.9694588396738" style="fill:#ffffff;font-family:Arial;font-size:10;">A</text></g><g><circle cx="64.66692064989346" cy="357.9694584134227" r="6.049788048785473" stroke="#11694d" stroke-width="0.8642554" fill="#19966e"/><text x="61.166920599307446" y="360.9694588396738" style="fill:#ffffff;font-family:Arial;font-size:10;">U</text></g><g><text x="77.19862" y="360.46945" style="fill:#404040;font-family:Arial;font-size:8;">5</text></g><g><text x="82.19862" y="360.46945" style="fill:#404040;font-family:Arial;font-size:8;">5</text></g><g><circle cx="73.16543243271113" cy="357.9694584134227" r="2.016596016261822"  stroke-width="0.0" fill="#404040"/></g><line x1="43.060534761373916" y1="341.54860513814776" x2="45.22117335022587" y2="341.54860513814776" stroke="#404040" stroke-width="0.8642554"/><circle cx="49.54245052792979" cy="341.54859279320254" r="4.321277177703905" stroke="#404040" stroke-width="0.8642554" fill="#404040"/><line x1="53.86372770563368" y1="341.54860513814776" x2="56.02436629448564" y2="341.54860513814776" stroke="#404040" stroke-width="0.8642554"/><g><circle cx="34.4179804059661" cy="341.54860513814776" r="6.049788048785471" stroke="#11694d" stroke-width="0.8642554" fill="#19966e"/><text x="30.91798035538009" y="344.54860556439894" style="fill:#ffffff;font-family:Arial;font-size:10;">U</text></g><g><circle cx="64.66692064989346" cy="341.54860513814776" r="6.049788048785473" stroke="#3d2f83" stroke-width="0.8642554" fill="#5844bc"/><text x="61.666920599307446" y="344.54860556439894" style="fill:#ffffff;font-family:Arial;font-size:10;">A</text></g><line x1="43.060534761373916" y1="325.1277518628729" x2="45.22117335022587" y2="325.1277518628729" stroke="#404040" stroke-width="0.8642554"/><circle cx="49.54245052792979" cy="325.1277395179277" r="4.321277177703905" stroke="#404040" stroke-width="0.8642554" fill="#404040"/><line x1="53.86372770563368" y1="325.1277518628729" x2="56.02436629448564" y2="325.1277518628729" stroke="#404040" stroke-width="0.8642554"/><g><circle cx="34.4179804059661" cy="325.12775186287297" r="6.049788048785471" stroke="#11694d" stroke-width="0.8642554" fill="#19966e"/><text x="30.91798035538009" y="328.1277522891241" style="fill:#ffffff;font-family:Arial;font-size:10;">U</text></g><g><circle cx="64.66692064989346" cy="325.12775186287297" r="6.049788048785473" stroke="#3d2f83" stroke-width="0.8642554" fill="#5844bc"/><text x="61.666920599307446" y="328.1277522891241" style="fill:#ffffff;font-family:Arial;font-size:10;">A</text></g><line x1="43.060534761373916" y1="308.70689858759806" x2="45.22117335022587" y2="308.70689858759806" stroke="#404040" stroke-width="0.8642554"/><circle cx="49.54245052792979" cy="308.70688624265284" r="4.321277177703905" stroke="#404040" stroke-width="0.8642554" fill="#404040"/><line x1="53.86372770563368" y1="308.70689858759806" x2="56.02436629448564" y2="308.70689858759806" stroke="#404040" stroke-width="0.8642554"/><g><circle cx="34.4179804059661" cy="308.70689858759806" r="6.049788048785471" stroke="#106ba5" stroke-width="0.8642554" fill="#1899ec"/><text x="30.91798035538009" y="311.70689901384924" style="fill:#ffffff;font-family:Arial;font-size:10;">G</text></g><g><circle cx="64.66692064989346" cy="308.70689858759806" r="6.049788048785473" stroke="#7d3982" stroke-width="0.8642554" fill="#b352ba"/><text x="61.666920599307446" y="311.70689901384924" style="fill:#ffffff;font-family:Arial;font-size:10;">C</text></g><line x1="43.06053476137391" y1="292.2860453123232" x2="45.22117335022587" y2="292.2860453123232" stroke="#404040" stroke-width="0.8642554"/><circle cx="49.54245052792979" cy="292.286032967378" r="4.321277177703905" stroke="#404040" stroke-width="0.8642554" fill="#404040"/><line x1="53.86372770563368" y1="292.2860453123232" x2="56.02436629448563" y2="292.2860453123232" stroke="#404040" stroke-width="0.8642554"/><g><circle cx="34.4179804059661" cy="292.28604531232327" r="6.049788048785468" stroke="#3d2f83" stroke-width="0.8642554" fill="#5844bc"/><text x="31.41798035538009" y="295.2860457385744" style="fill:#ffffff;font-family:Arial;font-size:10;">A</text></g><g><text x="16.886276" y="294.78604" style="fill:#404040;font-family:Arial;font-size:8;">0</text></g><g><text x="11.886276" y="294.78604" style="fill:#404040;font-family:Arial;font-size:8;">2</text></g><g><circle cx="25.91946862314842" cy="292.28604531232327" r="2.0165960162618237"  stroke-width="0.0" fill="#404040"/></g><g><circle cx="64.66692064989344" cy="292.28604531232327" r="6.049788048785469" stroke="#11694d" stroke-width="0.8642554" fill="#19966e"/><text x="61.16692059930744" y="295.2860457385744" style="fill:#ffffff;font-family:Arial;font-size:10;">U</text></g><line x1="43.06053476137391" y1="275.8651920370484" x2="45.22117335022587" y2="275.8651920370484" stroke="#404040" stroke-width="0.8642554"/><circle cx="49.54245052792979" cy="275.86517969210314" r="4.321277177703905" stroke="#404040" stroke-width="0.8642554" fill="#404040"/><line x1="53.86372770563368" y1="275.8651920370484" x2="56.02436629448563" y2="275.8651920370484" stroke="#404040" stroke-width="0.8642554"/><g><circle cx="34.4179804059661" cy="275.86519203704836" r="6.049788048785468" stroke="#106ba5" stroke-width="0.8642554" fill="#1899ec"/><text x="30.91798035538009" y="278.86519246329954" style="fill:#ffffff;font-family:Arial;font-size:10;">G</text></g><g><circle cx="64.66692064989344" cy="275.86519203704836" r="6.049788048785469" stroke="#7d3982" stroke-width="0.8642554" fill="#b352ba"/><text x="61.66692059930744" y="278.86519246329954" style="fill:#ffffff;font-family:Arial;font-size:10;">C</text></g><g><text x="77.19862" y="278.3652" style="fill:#404040;font-family:Arial;font-size:8;">5</text></g><g><text x="82.19862" y="278.3652" style="fill:#404040;font-family:Arial;font-size:8;">0</text></g><g><circle cx="73.16543243271113" cy="275.8651920370484" r="2.016596016261822"  stroke-width="0.0" fill="#404040"/></g><line x1="43.06053476137391" y1="259.44433876177357" x2="45.22117335022587" y2="259.44433876177357" stroke="#404040" stroke-width="0.8642554"/><circle cx="49.54245052792979" cy="259.4443264168283" r="4.321277177703905" stroke="#404040" stroke-width="0.8642554" fill="#404040"/><line x1="53.86372770563368" y1="259.44433876177357" x2="56.02436629448563" y2="259.44433876177357" stroke="#404040" stroke-width="0.8642554"/><g><circle cx="34.4179804059661" cy="259.44433876177357" r="6.049788048785468" stroke="#7d3982" stroke-width="0.8642554" fill="#b352ba"/><text x="31.41798035538009" y="262.4443391880247" style="fill:#ffffff;font-family:Arial;font-size:10;">C</text></g><g><circle cx="64.66692064989344" cy="259.44433876177357" r="6.049788048785469" stroke="#106ba5" stroke-width="0.8642554" fill="#1899ec"/><text x="61.16692059930744" y="262.4443391880247" style="fill:#ffffff;font-family:Arial;font-size:10;">G</text></g><line x1="43.06053476137391" y1="243.0234854864987" x2="45.22117335022586" y2="243.0234854864987" stroke="#404040" stroke-width="0.8642554"/><circle cx="49.54245052792979" cy="243.02347314155347" r="4.321277177703905" stroke="#404040" stroke-width="0.8642554" fill="#404040"/><line x1="53.86372770563368" y1="243.0234854864987" x2="56.02436629448563" y2="243.0234854864987" stroke="#404040" stroke-width="0.8642554"/><g><circle cx="34.41798040596609" cy="243.02348548649869" r="6.049788048785469" stroke="#3d2f83" stroke-width="0.8642554" fill="#5844bc"/><text x="31.417980355380088" y="246.02348591274983" style="fill:#ffffff;font-family:Arial;font-size:10;">A</text></g><g><circle cx="64.66692064989344" cy="243.02348548649869" r="6.049788048785469" stroke="#11694d" stroke-width="0.8642554" fill="#19966e"/><text x="61.16692059930744" y="246.02348591274983" style="fill:#ffffff;font-family:Arial;font-size:10;">U</text></g><line x1="43.06053476137391" y1="226.60263221122386" x2="45.22117335022586" y2="226.60263221122386" stroke="#404040" stroke-width="0.8642554"/><circle cx="49.54245052792979" cy="226.60261986627864" r="4.321277177703905" stroke="#404040" stroke-width="0.8642554" fill="#404040"/><line x1="53.86372770563368" y1="226.60263221122386" x2="56.02436629448563" y2="226.60263221122386" stroke="#404040" stroke-width="0.8642554"/><g><circle cx="34.41798040596609" cy="226.60263221122383" r="6.049788048785469" stroke="#11694d" stroke-width="0.8642554" fill="#19966e"/><text x="30.917980355380088" y="229.60263263747498" style="fill:#ffffff;font-family:Arial;font-size:10;">U</text></g><g><circle cx="64.66692064989344" cy="226.60263221122383" r="6.049788048785469" stroke="#9e3332" stroke-width="0.8642554" fill="#e34948"/><text x="61.66692059930744" y="229.60263263747498" style="fill:#ffffff;font-family:Arial;font-size:10;">A</text></g><line x1="43.06053476137391" y1="210.181778935949" x2="45.22117335022586" y2="210.181778935949" stroke="#404040" stroke-width="0.8642554"/><circle cx="49.54245052792979" cy="210.1817665910038" r="4.321277177703905" stroke="#404040" stroke-width="0.8642554" fill="#404040"/><line x1="53.86372770563368" y1="210.181778935949" x2="56.02436629448563" y2="210.181778935949" stroke="#404040" stroke-width="0.8642554"/><g><circle cx="34.41798040596609" cy="210.18177893594898" r="6.049788048785469" stroke="#9e3332" stroke-width="0.8642554" fill="#e34948"/><text x="31.417980355380088" y="213.18177936220013" style="fill:#ffffff;font-family:Arial;font-size:10;">A</text></g><g><text x="16.886276" y="212.68178" style="fill:#404040;font-family:Arial;font-size:8;">5</text></g><g><text x="11.886276" y="212.68178" style="fill:#404040;font-family:Arial;font-size:8;">2</text></g><g><circle cx="25.91946862314841" cy="210.18177893594904" r="2.0165960162618237"  stroke-width="0.0" fill="#404040"/></g><g><circle cx="64.66692064989344" cy="210.18177893594898" r="6.049788048785469" stroke="#11694d" stroke-width="0.8642554" fill="#19966e"/><text x="61.16692059930744" y="213.18177936220013" style="fill:#ffffff;font-family:Arial;font-size:10;">U</text></g><line x1="43.0605347613739" y1="193.7609256606741" x2="45.22117335022586" y2="193.7609256606741" stroke="#404040" stroke-width="0.8642554"/><circle cx="49.54245052792979" cy="193.76092650322033" r="4.321277177703905" stroke="#404040" stroke-width="0.8642554" fill="#404040"/><line x1="53.86372770563367" y1="193.7609256606741" x2="56.024366294485624" y2="193.7609256606741" stroke="#404040" stroke-width="0.8642554"/><g><circle cx="34.41798040596609" cy="193.7609256606741" r="6.049788048785471" stroke="#106ba5" stroke-width="0.8642554" fill="#1899ec"/><text x="30.917980355380084" y="196.76092608692528" style="fill:#ffffff;font-family:Arial;font-size:10;">G</text></g><g><circle cx="64.66692064989344" cy="193.7609256606741" r="6.049788048785473" stroke="#7d3982" stroke-width="0.8642554" fill="#b352ba"/><text x="61.66692059930743" y="196.76092608692528" style="fill:#ffffff;font-family:Arial;font-size:10;">C</text></g><g><text x="77.19862" y="196.26093" style="fill:#404040;font-family:Arial;font-size:8;">4</text></g><g><text x="82.19862" y="196.26093" style="fill:#404040;font-family:Arial;font-size:8;">5</text></g><g><circle cx="73.16543243271113" cy="193.76092566067405" r="2.016596016261822"  stroke-width="0.0" fill="#404040"/></g><line x1="43.0605347613739" y1="177.34007238539925" x2="45.22117335022586" y2="177.34007238539925" stroke="#404040" stroke-width="0.8642554"/><circle cx="49.54245052792979" cy="177.34008641543687" r="4.321277177703905" stroke="#404040" stroke-width="0.8642554" fill="#404040"/><line x1="53.86372770563367" y1="177.34007238539925" x2="56.024366294485624" y2="177.34007238539925" stroke="#404040" stroke-width="0.8642554"/><g><circle cx="34.41798040596609" cy="177.34007238539928" r="6.049788048785471" stroke="#7d3982" stroke-width="0.8642554" fill="#b352ba"/><text x="31.417980355380084" y="180.34007281165043" style="fill:#ffffff;font-family:Arial;font-size:10;">C</text></g><g><circle cx="64.66692064989344" cy="177.34007238539928" r="6.049788048785473" stroke="#106ba5" stroke-width="0.8642554" fill="#1899ec"/><text x="61.16692059930743" y="180.34007281165043" style="fill:#ffffff;font-family:Arial;font-size:10;">G</text></g><line x1="43.0605347613739" y1="160.9192191101244" x2="45.22117335022586" y2="160.9192191101244" stroke="#404040" stroke-width="0.8642554"/><circle cx="49.54245052792979" cy="160.91923314016202" r="4.321277177703905" stroke="#404040" stroke-width="0.8642554" fill="#404040"/><line x1="53.86372770563367" y1="160.9192191101244" x2="56.024366294485624" y2="160.9192191101244" stroke="#404040" stroke-width="0.8642554"/><g><circle cx="34.41798040596609" cy="160.91921911012443" r="6.049788048785471" stroke="#7d3982" stroke-width="0.8642554" fill="#b352ba"/><text x="31.417980355380084" y="163.91921953637558" style="fill:#ffffff;font-family:Arial;font-size:10;">C</text></g><g><circle cx="64.66692064989344" cy="160.91921911012443" r="6.049788048785473" stroke="#106ba5" stroke-width="0.8642554" fill="#1899ec"/><text x="61.16692059930743" y="163.91921953637558" style="fill:#ffffff;font-family:Arial;font-size:10;">G</text></g><line x1="43.0605347613739" y1="144.49836583484955" x2="45.221173350225854" y2="144.49836583484955" stroke="#404040" stroke-width="0.8642554"/><circle cx="49.54245052792979" cy="144.49837986488717" r="4.321277177703905" stroke="#404040" stroke-width="0.8642554" fill="#404040"/><line x1="53.86372770563367" y1="144.49836583484955" x2="56.024366294485624" y2="144.49836583484955" stroke="#404040" stroke-width="0.8642554"/><g><circle cx="34.41798040596609" cy="144.49836583484958" r="6.049788048785469" stroke="#106ba5" stroke-width="0.8642554" fill="#1899ec"/><text x="30.91798035538008" y="147.49836626110073" style="fill:#ffffff;font-family:Arial;font-size:10;">G</text></g><g><circle cx="64.66692064989343" cy="144.49836583484958" r="6.049788048785466" stroke="#7d3982" stroke-width="0.8642554" fill="#b352ba"/><text x="61.66692059930743" y="147.49836626110073" style="fill:#ffffff;font-family:Arial;font-size:10;">C</text></g><line x1="43.0605347613739" y1="128.0775125595747" x2="45.221173350225854" y2="128.0775125595747" stroke="#404040" stroke-width="0.8642554"/><circle cx="49.54245052792979" cy="128.0775265896123" r="4.321277177703905" stroke="#404040" stroke-width="0.8642554" fill="#404040"/><line x1="53.86372770563367" y1="128.0775125595747" x2="56.024366294485624" y2="128.0775125595747" stroke="#404040" stroke-width="0.8642554"/><g><circle cx="34.41798040596609" cy="128.0775125595747" r="6.049788048785469" stroke="#11694d" stroke-width="0.8642554" fill="#19966e"/><text x="30.91798035538008" y="131.07751298582582" style="fill:#ffffff;font-family:Arial;font-size:10;">U</text></g><g><text x="16.886276" y="130.57751" style="fill:#404040;font-family:Arial;font-size:8;">0</text></g><g><text x="11.886276" y="130.57751" style="fill:#404040;font-family:Arial;font-size:8;">3</text></g><g><circle cx="25.919468623148404" cy="128.07751255957464" r="2.0165960162618237"  stroke-width="0.0" fill="#404040"/></g><g><circle cx="64.66692064989343" cy="128.0775125595747" r="6.049788048785466" stroke="#106ba5" stroke-width="0.8642554" fill="#1899ec"/><text x="61.16692059930743" y="131.07751298582582" style="fill:#ffffff;font-family:Arial;font-size:10;">G</text></g><line x1="43.0605347613739" y1="111.65665928429985" x2="45.221173350225854" y2="111.65665928429985" stroke="#404040" stroke-width="0.8642554"/><circle cx="49.54245052792979" cy="111.65667331433747" r="4.321277177703905" stroke="#404040" stroke-width="0.8642554" fill="#404040"/><line x1="53.86372770563367" y1="111.65665928429985" x2="56.024366294485624" y2="111.65665928429985" stroke="#404040" stroke-width="0.8642554"/><g><circle cx="34.41798040596609" cy="111.65665928429985" r="6.049788048785469" stroke="#11694d" stroke-width="0.8642554" fill="#19966e"/><text x="30.91798035538008" y="114.65665971055103" style="fill:#ffffff;font-family:Arial;font-size:10;">U</text></g><g><circle cx="64.66692064989343" cy="111.65665928429985" r="6.049788048785466" stroke="#3d2f83" stroke-width="0.8642554" fill="#5844bc"/><text x="61.66692059930743" y="114.65665971055103" style="fill:#ffffff;font-family:Arial;font-size:10;">A</text></g><g><text x="77.19862" y="114.15666" style="fill:#404040;font-family:Arial;font-size:8;">4</text></g><g><text x="82.19862" y="114.15666" style="fill:#404040;font-family:Arial;font-size:8;">0</text></g><g><circle cx="73.16543243271113" cy="111.65665928429985" r="2.016596016261822"  stroke-width="0.0" fill="#404040"/></g><defs>
    <linearGradient id="reactivities_scale"  x1="0%" x2="100%" y1="0%" y2="0%">
      <stop offset="0%" stop-color="lightyellow" />
      <stop offset="100%" stop-color="firebrick" />
    </linearGradient>
  </defs>

  <rect fill="url(#reactivities_scale)" x="-99.18314964380471" y="710.5539170265198" width="150" height="25"/>
  <rect fill="none" x="-101.18314964380471" y="708.5539170265198" width="154" height="29" stroke="black" stroke-width="1"/>
  <text text-anchor="middle" x="-99.18314964380471" y="753.5539170265198">0</text>
  <text text-anchor="middle" x="50.81685035619529" y="753.5539170265198">1</text>
  <text text-anchor="start" x="-101.18314964380471" y="703.5539170265198">Reactivity</text>
  </svg>
